{
 "cells": [
  {
   "cell_type": "code",
   "execution_count": 1,
   "id": "b3bfb53f",
   "metadata": {},
   "outputs": [],
   "source": [
    "import os\n",
    "import time\n",
    "\n",
    "import mido\n",
    "import numpy as np\n",
    "import pandas as pd\n",
    "\n",
    "from matplotlib import pyplot as plt"
   ]
  },
  {
   "cell_type": "code",
   "execution_count": 2,
   "id": "3b5c7d72",
   "metadata": {},
   "outputs": [],
   "source": [
    "def getData(data_folder):\n",
    "    \"\"\"\n",
    "    Walk through a folder, modifing each mid to fit in 128 ticks per beat and be only a piano channel\n",
    "    :param data_folder: the base data folder used in the model, still nonrepresentative\n",
    "    :return: it saves a midfile in piano format and other in paino+128tpb\n",
    "    \"\"\"\n",
    "    counter = 0 \n",
    "    for dirpath, _, filenames in os.walk(data_folder):\n",
    "        for File in filenames:\n",
    "            path = os.path.join(dirpath, File)\n",
    "            mid_copy = mido.MidiFile()\n",
    "            \n",
    "            try:\n",
    "                mid = mido.MidiFile(path)\n",
    "                tpb = mid.ticks_per_beat\n",
    "                duration = int(mid.length)\n",
    "\n",
    "                mid_copy.type = 1\n",
    "                mid_copy.ticks_per_beat = tpb\n",
    "\n",
    "                if 10 < duration < 600:\n",
    "                    track = mido.merge_tracks(mid.tracks)\n",
    "\n",
    "                    for msg in list(track):\n",
    "                        if not msg.is_meta and msg.channel != 0 and msg.type == \"note_on\":\n",
    "                            msg.velocity = 0\n",
    "                            \n",
    "                mid_copy.tracks.append(track)\n",
    "                mid_copy.save(f\"OnlyPiano/{File}\")\n",
    "            \n",
    "                mid_copy.ticks_per_beat = 128\n",
    "                mid_copy.save(f\"OnlyPiano_TPB128/{File}\") \n",
    "                \n",
    "            except:\n",
    "                print(path)\n",
    "                continue\n",
    "            \n",
    "            counter+=1\n",
    "            if counter %250 ==0:\n",
    "                print(counter)"
   ]
  },
  {
   "cell_type": "code",
   "execution_count": 3,
   "id": "a23d05ad",
   "metadata": {
    "scrolled": true
   },
   "outputs": [
    {
     "name": "stdout",
     "output_type": "stream",
     "text": [
      "--- 0.5220174789428711 seconds ---\n"
     ]
    }
   ],
   "source": [
    "start_time = time.time()\n",
    "getData('TestDataset')\n",
    "print(\"--- %s seconds ---\" % (time.time() - start_time))"
   ]
  },
  {
   "cell_type": "code",
   "execution_count": 4,
   "id": "a6f8153b",
   "metadata": {},
   "outputs": [],
   "source": [
    "def get_info(data_folder):\n",
    "    counter = 0\n",
    "    for dirpath, _, filenames in os.walk(data_folder):\n",
    "        for File in filenames:\n",
    "            path = os.path.join(dirpath, File)\n",
    "\n",
    "            try:\n",
    "                mid = mido.MidiFile(path)\n",
    "                duration = mid.length\n",
    "                track = mido.merge_tracks(mid.tracks)\n",
    "                delta_time_ticks = 0\n",
    "            \n",
    "                for msg in list(track):\n",
    "                    delta_time_ticks += msg.time\n",
    "#                     if not msg.is_meta and msg.channel ==0:\n",
    "#                         print(msg)\n",
    "                beat_num = int(delta_time_ticks/128)\n",
    "                num_compasso = int(beat_num/4)\n",
    "                print(duration)\n",
    "                print(delta_time_ticks)\n",
    "                print(beat_num)\n",
    "                print(num_compasso)\n",
    "                print(int(num_compasso - 3))\n",
    "                \n",
    "            except:\n",
    "                print(path)\n",
    "                continue\n",
    "                \n",
    "            return mid  "
   ]
  },
  {
   "cell_type": "code",
   "execution_count": 5,
   "id": "5e837715",
   "metadata": {},
   "outputs": [
    {
     "name": "stdout",
     "output_type": "stream",
     "text": [
      "63.285651000000584\n",
      "14176\n",
      "110\n",
      "27\n",
      "24\n"
     ]
    }
   ],
   "source": [
    "mid = get_info('OnlyPiano_TPB128')"
   ]
  },
  {
   "cell_type": "code",
   "execution_count": 6,
   "id": "bb19b86e",
   "metadata": {},
   "outputs": [],
   "source": [
    "num_notes = 128\n",
    "samples_per_measure = 128\n",
    "\n",
    "def midi_to_pianoRoll(mid):\n",
    "    mid.ticks_per_beat = 128\n",
    "    track = mido.merge_tracks(mid.tracks)\n",
    "    \n",
    "    abs_time = 0\n",
    "    counter = 1\n",
    "    samples = []\n",
    "    \n",
    "    for msg in track:\n",
    "        abs_time += msg.time\n",
    "        [samples.append([0]*128) for i in range(msg.time)]\n",
    "        if not msg.is_meta and msg.channel != 0:\n",
    "            continue\n",
    "        \n",
    "#         if msg.type == \"note_on\":\n",
    "#             note = msg.note\n",
    "#             for i in range(abs_time - msg.time,abs_time):\n",
    "#                 samples[i][note] = 0\n",
    "#             print(f\"Note -> {note}\")\n",
    "#             print(f\"ON -> {msg.time}\")\n",
    "\n",
    "        if msg.type == \"note_off\":\n",
    "            note = msg.note\n",
    "            for i in range(abs_time - msg.time,abs_time):\n",
    "                samples[i][note] = 1\n",
    "\n",
    "#             print(f\"OFF -> {msg.time}\")\n",
    "#             print(f\"total ticks = {abs_time}\\n\")\n",
    "            \n",
    "    return samples"
   ]
  },
  {
   "cell_type": "code",
   "execution_count": 7,
   "id": "0a7cf784",
   "metadata": {},
   "outputs": [
    {
     "name": "stdout",
     "output_type": "stream",
     "text": [
      "--- 0.3512256145477295 seconds ---\n"
     ]
    }
   ],
   "source": [
    "start_time = time.time()\n",
    "samples = midi_to_pianoRoll(mid)\n",
    "print(\"--- %s seconds ---\" % (time.time() - start_time))\n",
    "samples = np.asarray(samples)"
   ]
  },
  {
   "cell_type": "code",
   "execution_count": 43,
   "id": "9fac0f1e",
   "metadata": {},
   "outputs": [],
   "source": [
    "def samples_to_midi(samples, fname):\n",
    "    mid = mido.MidiFile()\n",
    "    track = mido.MidiTrack()\n",
    "    mid.tracks.append(track)\n",
    "    mid.ticks_per_beat = 128\n",
    "    \n",
    "    abs_time = 0\n",
    "    last_time = 0\n",
    "    \n",
    "    for tick in range(samples.shape[0]):\n",
    "        abs_time += 1\n",
    "\n",
    "        for note in range(samples.shape[1]):\n",
    "            if samples[tick,note] == 1 and (tick == 0 or samples[tick-1,note] == 0):\n",
    "                delta_time = abs_time - last_time\n",
    "                delta_time -= 16\n",
    "                if delta_time < 0:\n",
    "                    delta_time = 0\n",
    "\n",
    "                track.append(mido.Message('note_on', note=note, channel = 0, time= abs(delta_time)))\n",
    "                \n",
    "                last_time = abs_time\n",
    "\n",
    "            if samples[tick,note] == 1 and (tick == samples.shape[0]-1 or samples[tick+1,note] == 0):\n",
    "                track.append(mido.Message('note_off', note=note, channel = 0, time= 16))\n",
    "#     return mid\n",
    "    mid.save(fname + \".mid\")\n",
    "    "
   ]
  },
  {
   "cell_type": "code",
   "execution_count": 47,
   "id": "a9421108",
   "metadata": {},
   "outputs": [],
   "source": [
    "# plt.imshow(samples.T[:,0:512])\n",
    "# plt.show()"
   ]
  },
  {
   "cell_type": "code",
   "execution_count": 45,
   "id": "b611623b",
   "metadata": {},
   "outputs": [
    {
     "name": "stdout",
     "output_type": "stream",
     "text": [
      "--- 0.928210973739624 seconds ---\n"
     ]
    }
   ],
   "source": [
    "start_time = time.time()\n",
    "samples_to_midi(samples, 'teste')\n",
    "print(\"--- %s seconds ---\" % (time.time() - start_time))"
   ]
  },
  {
   "cell_type": "code",
   "execution_count": 44,
   "id": "682750fb",
   "metadata": {},
   "outputs": [
    {
     "name": "stdout",
     "output_type": "stream",
     "text": [
      "note_on channel=0 note=76 velocity=64 time=0\n",
      "note_off channel=0 note=76 velocity=64 time=10\n",
      "note_on channel=0 note=76 velocity=64 time=22\n",
      "note_off channel=0 note=76 velocity=64 time=10\n",
      "note_on channel=0 note=76 velocity=64 time=30\n",
      "note_off channel=0 note=76 velocity=64 time=10\n",
      "note_on channel=0 note=72 velocity=64 time=38\n",
      "note_off channel=0 note=72 velocity=64 time=10\n",
      "note_on channel=0 note=76 velocity=64 time=14\n",
      "note_off channel=0 note=76 velocity=64 time=10\n",
      "note_on channel=0 note=79 velocity=64 time=38\n",
      "note_off channel=0 note=79 velocity=64 time=10\n",
      "note_on channel=0 note=72 velocity=64 time=182\n",
      "note_off channel=0 note=72 velocity=64 time=10\n",
      "note_on channel=0 note=67 velocity=64 time=70\n",
      "note_off channel=0 note=67 velocity=64 time=10\n",
      "note_on channel=0 note=64 velocity=64 time=54\n",
      "note_off channel=0 note=64 velocity=64 time=10\n",
      "note_on channel=0 note=69 velocity=64 time=62\n",
      "note_off channel=0 note=69 velocity=64 time=10\n",
      "note_on channel=0 note=71 velocity=64 time=46\n",
      "note_off channel=0 note=71 velocity=64 time=10\n",
      "note_on channel=0 note=70 velocity=64 time=38\n",
      "note_off channel=0 note=70 velocity=64 time=10\n",
      "note_on channel=0 note=69 velocity=64 time=6\n",
      "note_off channel=0 note=69 velocity=64 time=10\n",
      "note_on channel=0 note=67 velocity=64 time=38\n",
      "note_off channel=0 note=67 velocity=64 time=10\n",
      "note_on channel=0 note=76 velocity=64 time=22\n",
      "note_off channel=0 note=76 velocity=64 time=10\n",
      "note_on channel=0 note=79 velocity=64 time=22\n",
      "note_off channel=0 note=79 velocity=64 time=10\n",
      "note_on channel=0 note=81 velocity=64 time=22\n",
      "note_off channel=0 note=81 velocity=64 time=10\n",
      "note_on channel=0 note=77 velocity=64 time=38\n",
      "note_off channel=0 note=77 velocity=64 time=10\n",
      "note_on channel=0 note=79 velocity=64 time=22\n",
      "note_off channel=0 note=79 velocity=64 time=10\n",
      "note_on channel=0 note=76 velocity=64 time=30\n",
      "note_off channel=0 note=76 velocity=64 time=10\n",
      "note_on channel=0 note=72 velocity=64 time=46\n",
      "note_off channel=0 note=72 velocity=64 time=10\n",
      "note_on channel=0 note=74 velocity=64 time=6\n",
      "note_off channel=0 note=74 velocity=64 time=10\n",
      "note_on channel=0 note=71 velocity=64 time=22\n",
      "note_off channel=0 note=71 velocity=64 time=10\n",
      "note_on channel=0 note=72 velocity=64 time=54\n",
      "note_off channel=0 note=72 velocity=64 time=10\n",
      "note_on channel=0 note=67 velocity=64 time=70\n",
      "note_off channel=0 note=67 velocity=64 time=10\n",
      "note_on channel=0 note=64 velocity=64 time=54\n",
      "note_off channel=0 note=64 velocity=64 time=10\n",
      "note_on channel=0 note=69 velocity=64 time=62\n",
      "note_off channel=0 note=69 velocity=64 time=10\n",
      "note_on channel=0 note=71 velocity=64 time=46\n",
      "note_off channel=0 note=71 velocity=64 time=10\n",
      "note_on channel=0 note=70 velocity=64 time=38\n",
      "note_off channel=0 note=70 velocity=64 time=10\n",
      "note_on channel=0 note=69 velocity=64 time=6\n",
      "note_off channel=0 note=69 velocity=64 time=10\n",
      "note_on channel=0 note=67 velocity=64 time=38\n",
      "note_off channel=0 note=67 velocity=64 time=10\n",
      "note_on channel=0 note=76 velocity=64 time=22\n",
      "note_off channel=0 note=76 velocity=64 time=10\n",
      "note_on channel=0 note=79 velocity=64 time=22\n",
      "note_off channel=0 note=79 velocity=64 time=10\n",
      "note_on channel=0 note=81 velocity=64 time=22\n",
      "note_off channel=0 note=81 velocity=64 time=10\n",
      "note_on channel=0 note=77 velocity=64 time=38\n",
      "note_off channel=0 note=77 velocity=64 time=10\n",
      "note_on channel=0 note=79 velocity=64 time=22\n",
      "note_off channel=0 note=79 velocity=64 time=10\n",
      "note_on channel=0 note=76 velocity=64 time=30\n",
      "note_off channel=0 note=76 velocity=64 time=10\n",
      "note_on channel=0 note=72 velocity=64 time=46\n",
      "note_off channel=0 note=72 velocity=64 time=10\n",
      "note_on channel=0 note=74 velocity=64 time=6\n",
      "note_off channel=0 note=74 velocity=64 time=10\n",
      "note_on channel=0 note=71 velocity=64 time=22\n",
      "note_off channel=0 note=71 velocity=64 time=10\n",
      "note_on channel=0 note=79 velocity=64 time=102\n",
      "note_off channel=0 note=79 velocity=64 time=10\n",
      "note_on channel=0 note=78 velocity=64 time=22\n",
      "note_off channel=0 note=78 velocity=64 time=10\n",
      "note_on channel=0 note=77 velocity=64 time=6\n",
      "note_off channel=0 note=77 velocity=64 time=10\n",
      "note_on channel=0 note=75 velocity=64 time=22\n",
      "note_off channel=0 note=75 velocity=64 time=10\n",
      "note_on channel=0 note=76 velocity=64 time=38\n",
      "note_off channel=0 note=76 velocity=64 time=10\n",
      "note_on channel=0 note=68 velocity=64 time=30\n",
      "note_off channel=0 note=68 velocity=64 time=10\n",
      "note_on channel=0 note=69 velocity=64 time=14\n",
      "note_off channel=0 note=69 velocity=64 time=10\n",
      "note_on channel=0 note=72 velocity=64 time=22\n",
      "note_off channel=0 note=72 velocity=64 time=10\n",
      "note_on channel=0 note=69 velocity=64 time=38\n",
      "note_off channel=0 note=69 velocity=64 time=10\n",
      "note_on channel=0 note=72 velocity=64 time=6\n",
      "note_off channel=0 note=72 velocity=64 time=10\n",
      "note_on channel=0 note=74 velocity=64 time=22\n",
      "note_off channel=0 note=74 velocity=64 time=10\n",
      "note_on channel=0 note=79 velocity=64 time=54\n",
      "note_off channel=0 note=79 velocity=64 time=10\n",
      "note_on channel=0 note=78 velocity=64 time=22\n",
      "note_off channel=0 note=78 velocity=64 time=10\n",
      "note_on channel=0 note=77 velocity=64 time=6\n",
      "note_off channel=0 note=77 velocity=64 time=10\n",
      "note_on channel=0 note=75 velocity=64 time=22\n",
      "note_off channel=0 note=75 velocity=64 time=10\n",
      "note_on channel=0 note=76 velocity=64 time=38\n",
      "note_off channel=0 note=76 velocity=64 time=10\n",
      "note_on channel=0 note=84 velocity=64 time=30\n",
      "note_off channel=0 note=84 velocity=64 time=10\n",
      "note_on channel=0 note=84 velocity=64 time=46\n",
      "note_off channel=0 note=84 velocity=64 time=10\n",
      "note_on channel=0 note=84 velocity=64 time=6\n",
      "note_off channel=0 note=84 velocity=64 time=10\n",
      "note_on channel=0 note=79 velocity=64 time=134\n",
      "note_off channel=0 note=79 velocity=64 time=10\n",
      "note_on channel=0 note=78 velocity=64 time=22\n",
      "note_off channel=0 note=78 velocity=64 time=10\n",
      "note_on channel=0 note=77 velocity=64 time=6\n",
      "note_off channel=0 note=77 velocity=64 time=10\n",
      "note_on channel=0 note=75 velocity=64 time=22\n",
      "note_off channel=0 note=75 velocity=64 time=10\n",
      "note_on channel=0 note=76 velocity=64 time=38\n",
      "note_off channel=0 note=76 velocity=64 time=10\n",
      "note_on channel=0 note=68 velocity=64 time=30\n",
      "note_off channel=0 note=68 velocity=64 time=10\n",
      "note_on channel=0 note=69 velocity=64 time=14\n",
      "note_off channel=0 note=69 velocity=64 time=10\n",
      "note_on channel=0 note=72 velocity=64 time=22\n",
      "note_off channel=0 note=72 velocity=64 time=10\n",
      "note_on channel=0 note=69 velocity=64 time=38\n",
      "note_off channel=0 note=69 velocity=64 time=10\n",
      "note_on channel=0 note=72 velocity=64 time=6\n",
      "note_off channel=0 note=72 velocity=64 time=10\n",
      "note_on channel=0 note=74 velocity=64 time=22\n",
      "note_off channel=0 note=74 velocity=64 time=10\n",
      "note_on channel=0 note=75 velocity=64 time=54\n",
      "note_off channel=0 note=75 velocity=64 time=10\n",
      "note_on channel=0 note=74 velocity=64 time=70\n",
      "note_off channel=0 note=74 velocity=64 time=10\n",
      "note_on channel=0 note=72 velocity=64 time=54\n",
      "note_off channel=0 note=72 velocity=64 time=10\n",
      "note_on channel=0 note=79 velocity=64 time=230\n",
      "note_off channel=0 note=79 velocity=64 time=10\n",
      "note_on channel=0 note=78 velocity=64 time=22\n",
      "note_off channel=0 note=78 velocity=64 time=10\n",
      "note_on channel=0 note=77 velocity=64 time=6\n",
      "note_off channel=0 note=77 velocity=64 time=10\n",
      "note_on channel=0 note=75 velocity=64 time=22\n",
      "note_off channel=0 note=75 velocity=64 time=10\n",
      "note_on channel=0 note=76 velocity=64 time=38\n",
      "note_off channel=0 note=76 velocity=64 time=10\n",
      "note_on channel=0 note=68 velocity=64 time=30\n",
      "note_off channel=0 note=68 velocity=64 time=10\n",
      "note_on channel=0 note=69 velocity=64 time=14\n",
      "note_off channel=0 note=69 velocity=64 time=10\n",
      "note_on channel=0 note=72 velocity=64 time=22\n",
      "note_off channel=0 note=72 velocity=64 time=10\n",
      "note_on channel=0 note=69 velocity=64 time=38\n",
      "note_off channel=0 note=69 velocity=64 time=10\n",
      "note_on channel=0 note=72 velocity=64 time=6\n",
      "note_off channel=0 note=72 velocity=64 time=10\n",
      "note_on channel=0 note=74 velocity=64 time=22\n",
      "note_off channel=0 note=74 velocity=64 time=10\n",
      "note_on channel=0 note=79 velocity=64 time=54\n",
      "note_off channel=0 note=79 velocity=64 time=10\n",
      "note_on channel=0 note=78 velocity=64 time=22\n",
      "note_off channel=0 note=78 velocity=64 time=10\n",
      "note_on channel=0 note=77 velocity=64 time=6\n",
      "note_off channel=0 note=77 velocity=64 time=10\n",
      "note_on channel=0 note=75 velocity=64 time=22\n",
      "note_off channel=0 note=75 velocity=64 time=10\n",
      "note_on channel=0 note=76 velocity=64 time=38\n",
      "note_off channel=0 note=76 velocity=64 time=10\n",
      "note_on channel=0 note=84 velocity=64 time=30\n",
      "note_off channel=0 note=84 velocity=64 time=10\n",
      "note_on channel=0 note=84 velocity=64 time=46\n",
      "note_off channel=0 note=84 velocity=64 time=10\n",
      "note_on channel=0 note=84 velocity=64 time=6\n",
      "note_off channel=0 note=84 velocity=64 time=10\n",
      "note_on channel=0 note=79 velocity=64 time=134\n",
      "note_off channel=0 note=79 velocity=64 time=10\n",
      "note_on channel=0 note=78 velocity=64 time=22\n",
      "note_off channel=0 note=78 velocity=64 time=10\n",
      "note_on channel=0 note=77 velocity=64 time=6\n",
      "note_off channel=0 note=77 velocity=64 time=10\n",
      "note_on channel=0 note=75 velocity=64 time=22\n",
      "note_off channel=0 note=75 velocity=64 time=10\n",
      "note_on channel=0 note=76 velocity=64 time=38\n",
      "note_off channel=0 note=76 velocity=64 time=10\n",
      "note_on channel=0 note=68 velocity=64 time=30\n",
      "note_off channel=0 note=68 velocity=64 time=10\n",
      "note_on channel=0 note=69 velocity=64 time=14\n",
      "note_off channel=0 note=69 velocity=64 time=10\n",
      "note_on channel=0 note=72 velocity=64 time=22\n",
      "note_off channel=0 note=72 velocity=64 time=10\n",
      "note_on channel=0 note=69 velocity=64 time=38\n",
      "note_off channel=0 note=69 velocity=64 time=10\n",
      "note_on channel=0 note=72 velocity=64 time=6\n",
      "note_off channel=0 note=72 velocity=64 time=10\n",
      "note_on channel=0 note=74 velocity=64 time=22\n",
      "note_off channel=0 note=74 velocity=64 time=10\n",
      "note_on channel=0 note=75 velocity=64 time=54\n",
      "note_off channel=0 note=75 velocity=64 time=10\n",
      "note_on channel=0 note=74 velocity=64 time=70\n",
      "note_off channel=0 note=74 velocity=64 time=10\n",
      "note_on channel=0 note=72 velocity=64 time=54\n",
      "note_off channel=0 note=72 velocity=64 time=10\n",
      "note_on channel=0 note=72 velocity=64 time=182\n",
      "note_off channel=0 note=72 velocity=64 time=10\n",
      "note_on channel=0 note=72 velocity=64 time=22\n",
      "note_off channel=0 note=72 velocity=64 time=10\n",
      "note_on channel=0 note=72 velocity=64 time=30\n",
      "note_off channel=0 note=72 velocity=64 time=10\n",
      "note_on channel=0 note=72 velocity=64 time=38\n",
      "note_off channel=0 note=72 velocity=64 time=10\n",
      "note_on channel=0 note=74 velocity=64 time=14\n",
      "note_off channel=0 note=74 velocity=64 time=10\n",
      "note_on channel=0 note=76 velocity=64 time=38\n",
      "note_off channel=0 note=76 velocity=64 time=10\n",
      "note_on channel=0 note=72 velocity=64 time=22\n",
      "note_off channel=0 note=72 velocity=64 time=10\n",
      "note_on channel=0 note=69 velocity=64 time=30\n",
      "note_off channel=0 note=69 velocity=64 time=10\n",
      "note_on channel=0 note=67 velocity=64 time=22\n",
      "note_off channel=0 note=67 velocity=64 time=10\n",
      "note_on channel=0 note=72 velocity=64 time=78\n",
      "note_off channel=0 note=72 velocity=64 time=10\n",
      "note_on channel=0 note=72 velocity=64 time=22\n",
      "note_off channel=0 note=72 velocity=64 time=10\n",
      "note_on channel=0 note=72 velocity=64 time=30\n",
      "note_off channel=0 note=72 velocity=64 time=10\n",
      "note_on channel=0 note=72 velocity=64 time=38\n",
      "note_off channel=0 note=72 velocity=64 time=10\n",
      "note_on channel=0 note=74 velocity=64 time=14\n",
      "note_off channel=0 note=74 velocity=64 time=10\n",
      "note_on channel=0 note=76 velocity=64 time=22\n",
      "note_off channel=0 note=76 velocity=64 time=10\n",
      "note_on channel=0 note=72 velocity=64 time=198\n",
      "note_off channel=0 note=72 velocity=64 time=10\n",
      "note_on channel=0 note=72 velocity=64 time=22\n",
      "note_off channel=0 note=72 velocity=64 time=10\n",
      "note_on channel=0 note=72 velocity=64 time=30\n",
      "note_off channel=0 note=72 velocity=64 time=10\n",
      "note_on channel=0 note=72 velocity=64 time=38\n",
      "note_off channel=0 note=72 velocity=64 time=10\n",
      "note_on channel=0 note=74 velocity=64 time=14\n",
      "note_off channel=0 note=74 velocity=64 time=10\n",
      "note_on channel=0 note=76 velocity=64 time=38\n",
      "note_off channel=0 note=76 velocity=64 time=10\n",
      "note_on channel=0 note=72 velocity=64 time=22\n",
      "note_off channel=0 note=72 velocity=64 time=10\n",
      "note_on channel=0 note=69 velocity=64 time=30\n",
      "note_off channel=0 note=69 velocity=64 time=10\n",
      "note_on channel=0 note=67 velocity=64 time=22\n",
      "note_off channel=0 note=67 velocity=64 time=10\n",
      "note_on channel=0 note=76 velocity=64 time=78\n",
      "note_off channel=0 note=76 velocity=64 time=10\n",
      "note_on channel=0 note=76 velocity=64 time=22\n",
      "note_off channel=0 note=76 velocity=64 time=10\n",
      "note_on channel=0 note=76 velocity=64 time=30\n",
      "note_off channel=0 note=76 velocity=64 time=10\n",
      "note_on channel=0 note=72 velocity=64 time=38\n",
      "note_off channel=0 note=72 velocity=64 time=10\n",
      "note_on channel=0 note=76 velocity=64 time=14\n",
      "note_off channel=0 note=76 velocity=64 time=10\n",
      "note_on channel=0 note=79 velocity=64 time=38\n",
      "note_off channel=0 note=79 velocity=64 time=10\n",
      "note_on channel=0 note=72 velocity=64 time=182\n",
      "note_off channel=0 note=72 velocity=64 time=10\n",
      "note_on channel=0 note=67 velocity=64 time=70\n",
      "note_off channel=0 note=67 velocity=64 time=10\n",
      "note_on channel=0 note=64 velocity=64 time=54\n",
      "note_off channel=0 note=64 velocity=64 time=10\n",
      "note_on channel=0 note=69 velocity=64 time=62\n",
      "note_off channel=0 note=69 velocity=64 time=10\n",
      "note_on channel=0 note=71 velocity=64 time=46\n",
      "note_off channel=0 note=71 velocity=64 time=10\n",
      "note_on channel=0 note=70 velocity=64 time=38\n",
      "note_off channel=0 note=70 velocity=64 time=10\n",
      "note_on channel=0 note=69 velocity=64 time=6\n",
      "note_off channel=0 note=69 velocity=64 time=10\n",
      "note_on channel=0 note=67 velocity=64 time=38\n",
      "note_off channel=0 note=67 velocity=64 time=10\n",
      "note_on channel=0 note=76 velocity=64 time=22\n",
      "note_off channel=0 note=76 velocity=64 time=10\n",
      "note_on channel=0 note=79 velocity=64 time=22\n",
      "note_off channel=0 note=79 velocity=64 time=10\n",
      "note_on channel=0 note=81 velocity=64 time=22\n",
      "note_off channel=0 note=81 velocity=64 time=10\n",
      "note_on channel=0 note=77 velocity=64 time=38\n",
      "note_off channel=0 note=77 velocity=64 time=10\n",
      "note_on channel=0 note=79 velocity=64 time=22\n",
      "note_off channel=0 note=79 velocity=64 time=10\n",
      "note_on channel=0 note=76 velocity=64 time=30\n",
      "note_off channel=0 note=76 velocity=64 time=10\n",
      "note_on channel=0 note=72 velocity=64 time=46\n",
      "note_off channel=0 note=72 velocity=64 time=10\n",
      "note_on channel=0 note=74 velocity=64 time=6\n",
      "note_off channel=0 note=74 velocity=64 time=10\n",
      "note_on channel=0 note=71 velocity=64 time=22\n",
      "note_off channel=0 note=71 velocity=64 time=10\n",
      "note_on channel=0 note=72 velocity=64 time=54\n",
      "note_off channel=0 note=72 velocity=64 time=10\n",
      "note_on channel=0 note=67 velocity=64 time=70\n",
      "note_off channel=0 note=67 velocity=64 time=10\n",
      "note_on channel=0 note=64 velocity=64 time=54\n",
      "note_off channel=0 note=64 velocity=64 time=10\n",
      "note_on channel=0 note=69 velocity=64 time=62\n",
      "note_off channel=0 note=69 velocity=64 time=10\n",
      "note_on channel=0 note=71 velocity=64 time=46\n",
      "note_off channel=0 note=71 velocity=64 time=10\n",
      "note_on channel=0 note=70 velocity=64 time=38\n",
      "note_off channel=0 note=70 velocity=64 time=10\n",
      "note_on channel=0 note=69 velocity=64 time=6\n",
      "note_off channel=0 note=69 velocity=64 time=10\n",
      "note_on channel=0 note=67 velocity=64 time=38\n",
      "note_off channel=0 note=67 velocity=64 time=10\n",
      "note_on channel=0 note=76 velocity=64 time=22\n",
      "note_off channel=0 note=76 velocity=64 time=10\n",
      "note_on channel=0 note=79 velocity=64 time=22\n",
      "note_off channel=0 note=79 velocity=64 time=10\n",
      "note_on channel=0 note=81 velocity=64 time=22\n",
      "note_off channel=0 note=81 velocity=64 time=10\n",
      "note_on channel=0 note=77 velocity=64 time=38\n",
      "note_off channel=0 note=77 velocity=64 time=10\n",
      "note_on channel=0 note=79 velocity=64 time=22\n",
      "note_off channel=0 note=79 velocity=64 time=10\n",
      "note_on channel=0 note=76 velocity=64 time=30\n",
      "note_off channel=0 note=76 velocity=64 time=10\n",
      "note_on channel=0 note=72 velocity=64 time=46\n",
      "note_off channel=0 note=72 velocity=64 time=10\n",
      "note_on channel=0 note=74 velocity=64 time=6\n",
      "note_off channel=0 note=74 velocity=64 time=10\n",
      "note_on channel=0 note=71 velocity=64 time=22\n",
      "note_off channel=0 note=71 velocity=64 time=10\n",
      "note_on channel=0 note=76 velocity=64 time=54\n",
      "note_off channel=0 note=76 velocity=64 time=10\n",
      "note_on channel=0 note=72 velocity=64 time=14\n",
      "note_off channel=0 note=72 velocity=64 time=10\n",
      "note_on channel=0 note=67 velocity=64 time=38\n",
      "note_off channel=0 note=67 velocity=64 time=10\n",
      "note_on channel=0 note=68 velocity=64 time=62\n",
      "note_off channel=0 note=68 velocity=64 time=10\n",
      "note_on channel=0 note=69 velocity=64 time=38\n",
      "note_off channel=0 note=69 velocity=64 time=10\n",
      "note_on channel=0 note=77 velocity=64 time=14\n",
      "note_off channel=0 note=77 velocity=64 time=10\n",
      "note_on channel=0 note=77 velocity=64 time=38\n",
      "note_off channel=0 note=77 velocity=64 time=10\n",
      "note_on channel=0 note=69 velocity=64 time=14\n",
      "note_off channel=0 note=69 velocity=64 time=10\n",
      "note_on channel=0 note=71 velocity=64 time=86\n",
      "note_off channel=0 note=71 velocity=64 time=10\n",
      "note_on channel=0 note=81 velocity=64 time=22\n",
      "note_off channel=0 note=81 velocity=64 time=10\n",
      "note_on channel=0 note=81 velocity=64 time=30\n",
      "note_off channel=0 note=81 velocity=64 time=10\n",
      "note_on channel=0 note=81 velocity=64 time=14\n",
      "note_off channel=0 note=81 velocity=64 time=10\n",
      "note_on channel=0 note=79 velocity=64 time=22\n",
      "note_off channel=0 note=79 velocity=64 time=10\n",
      "note_on channel=0 note=77 velocity=64 time=22\n",
      "note_off channel=0 note=77 velocity=64 time=10\n",
      "note_on channel=0 note=76 velocity=64 time=22\n",
      "note_off channel=0 note=76 velocity=64 time=10\n",
      "note_on channel=0 note=72 velocity=64 time=14\n",
      "note_off channel=0 note=72 velocity=64 time=10\n",
      "note_on channel=0 note=69 velocity=64 time=38\n",
      "note_off channel=0 note=69 velocity=64 time=10\n",
      "note_on channel=0 note=67 velocity=64 time=14\n",
      "note_off channel=0 note=67 velocity=64 time=10\n",
      "note_on channel=0 note=76 velocity=64 time=86\n",
      "note_off channel=0 note=76 velocity=64 time=10\n",
      "note_on channel=0 note=72 velocity=64 time=14\n",
      "note_off channel=0 note=72 velocity=64 time=10\n",
      "note_on channel=0 note=67 velocity=64 time=38\n",
      "note_off channel=0 note=67 velocity=64 time=10\n",
      "note_on channel=0 note=68 velocity=64 time=62\n",
      "note_off channel=0 note=68 velocity=64 time=10\n",
      "note_on channel=0 note=69 velocity=64 time=38\n",
      "note_off channel=0 note=69 velocity=64 time=10\n",
      "note_on channel=0 note=77 velocity=64 time=14\n",
      "note_off channel=0 note=77 velocity=64 time=10\n",
      "note_on channel=0 note=77 velocity=64 time=38\n",
      "note_off channel=0 note=77 velocity=64 time=10\n",
      "note_on channel=0 note=69 velocity=64 time=14\n",
      "note_off channel=0 note=69 velocity=64 time=10\n",
      "note_on channel=0 note=71 velocity=64 time=86\n",
      "note_off channel=0 note=71 velocity=64 time=10\n",
      "note_on channel=0 note=77 velocity=64 time=14\n",
      "note_off channel=0 note=77 velocity=64 time=10\n",
      "note_on channel=0 note=77 velocity=64 time=38\n",
      "note_off channel=0 note=77 velocity=64 time=10\n",
      "note_on channel=0 note=77 velocity=64 time=14\n",
      "note_off channel=0 note=77 velocity=64 time=10\n",
      "note_on channel=0 note=76 velocity=64 time=22\n",
      "note_off channel=0 note=76 velocity=64 time=10\n",
      "note_on channel=0 note=74 velocity=64 time=22\n",
      "note_off channel=0 note=74 velocity=64 time=10\n",
      "note_on channel=0 note=72 velocity=64 time=22\n",
      "note_off channel=0 note=72 velocity=64 time=10\n",
      "note_on channel=0 note=76 velocity=64 time=182\n",
      "note_off channel=0 note=76 velocity=64 time=10\n",
      "note_on channel=0 note=72 velocity=64 time=14\n",
      "note_off channel=0 note=72 velocity=64 time=10\n",
      "note_on channel=0 note=67 velocity=64 time=38\n",
      "note_off channel=0 note=67 velocity=64 time=10\n",
      "note_on channel=0 note=68 velocity=64 time=62\n",
      "note_off channel=0 note=68 velocity=64 time=10\n",
      "note_on channel=0 note=69 velocity=64 time=38\n",
      "note_off channel=0 note=69 velocity=64 time=10\n",
      "note_on channel=0 note=77 velocity=64 time=14\n",
      "note_off channel=0 note=77 velocity=64 time=10\n",
      "note_on channel=0 note=77 velocity=64 time=38\n",
      "note_off channel=0 note=77 velocity=64 time=10\n",
      "note_on channel=0 note=69 velocity=64 time=14\n",
      "note_off channel=0 note=69 velocity=64 time=10\n",
      "note_on channel=0 note=71 velocity=64 time=86\n",
      "note_off channel=0 note=71 velocity=64 time=10\n",
      "note_on channel=0 note=81 velocity=64 time=22\n",
      "note_off channel=0 note=81 velocity=64 time=10\n",
      "note_on channel=0 note=81 velocity=64 time=30\n",
      "note_off channel=0 note=81 velocity=64 time=10\n",
      "note_on channel=0 note=81 velocity=64 time=14\n",
      "note_off channel=0 note=81 velocity=64 time=10\n",
      "note_on channel=0 note=79 velocity=64 time=22\n",
      "note_off channel=0 note=79 velocity=64 time=10\n",
      "note_on channel=0 note=77 velocity=64 time=22\n",
      "note_off channel=0 note=77 velocity=64 time=10\n",
      "note_on channel=0 note=76 velocity=64 time=22\n",
      "note_off channel=0 note=76 velocity=64 time=10\n",
      "note_on channel=0 note=72 velocity=64 time=14\n",
      "note_off channel=0 note=72 velocity=64 time=10\n",
      "note_on channel=0 note=69 velocity=64 time=38\n",
      "note_off channel=0 note=69 velocity=64 time=10\n",
      "note_on channel=0 note=67 velocity=64 time=14\n",
      "note_off channel=0 note=67 velocity=64 time=10\n",
      "note_on channel=0 note=76 velocity=64 time=86\n",
      "note_off channel=0 note=76 velocity=64 time=10\n",
      "note_on channel=0 note=72 velocity=64 time=14\n",
      "note_off channel=0 note=72 velocity=64 time=10\n",
      "note_on channel=0 note=67 velocity=64 time=38\n",
      "note_off channel=0 note=67 velocity=64 time=10\n",
      "note_on channel=0 note=68 velocity=64 time=62\n",
      "note_off channel=0 note=68 velocity=64 time=10\n",
      "note_on channel=0 note=69 velocity=64 time=38\n",
      "note_off channel=0 note=69 velocity=64 time=10\n",
      "note_on channel=0 note=77 velocity=64 time=14\n",
      "note_off channel=0 note=77 velocity=64 time=10\n",
      "note_on channel=0 note=77 velocity=64 time=38\n",
      "note_off channel=0 note=77 velocity=64 time=10\n",
      "note_on channel=0 note=69 velocity=64 time=14\n",
      "note_off channel=0 note=69 velocity=64 time=10\n",
      "note_on channel=0 note=71 velocity=64 time=86\n",
      "note_off channel=0 note=71 velocity=64 time=10\n",
      "note_on channel=0 note=77 velocity=64 time=14\n",
      "note_off channel=0 note=77 velocity=64 time=10\n",
      "note_on channel=0 note=77 velocity=64 time=38\n",
      "note_off channel=0 note=77 velocity=64 time=10\n",
      "note_on channel=0 note=77 velocity=64 time=14\n",
      "note_off channel=0 note=77 velocity=64 time=10\n",
      "note_on channel=0 note=76 velocity=64 time=22\n",
      "note_off channel=0 note=76 velocity=64 time=10\n",
      "note_on channel=0 note=74 velocity=64 time=22\n",
      "note_off channel=0 note=74 velocity=64 time=10\n",
      "note_on channel=0 note=72 velocity=64 time=22\n",
      "note_off channel=0 note=72 velocity=64 time=10\n",
      "note_on channel=0 note=72 velocity=64 time=182\n",
      "note_off channel=0 note=72 velocity=64 time=10\n",
      "note_on channel=0 note=72 velocity=64 time=22\n",
      "note_off channel=0 note=72 velocity=64 time=10\n",
      "note_on channel=0 note=72 velocity=64 time=30\n",
      "note_off channel=0 note=72 velocity=64 time=10\n",
      "note_on channel=0 note=72 velocity=64 time=38\n",
      "note_off channel=0 note=72 velocity=64 time=10\n",
      "note_on channel=0 note=74 velocity=64 time=14\n",
      "note_off channel=0 note=74 velocity=64 time=10\n",
      "note_on channel=0 note=76 velocity=64 time=38\n",
      "note_off channel=0 note=76 velocity=64 time=10\n",
      "note_on channel=0 note=72 velocity=64 time=22\n",
      "note_off channel=0 note=72 velocity=64 time=10\n",
      "note_on channel=0 note=69 velocity=64 time=30\n",
      "note_off channel=0 note=69 velocity=64 time=10\n",
      "note_on channel=0 note=67 velocity=64 time=22\n",
      "note_off channel=0 note=67 velocity=64 time=10\n",
      "note_on channel=0 note=72 velocity=64 time=78\n",
      "note_off channel=0 note=72 velocity=64 time=10\n",
      "note_on channel=0 note=72 velocity=64 time=22\n",
      "note_off channel=0 note=72 velocity=64 time=10\n",
      "note_on channel=0 note=72 velocity=64 time=30\n",
      "note_off channel=0 note=72 velocity=64 time=10\n",
      "note_on channel=0 note=72 velocity=64 time=38\n",
      "note_off channel=0 note=72 velocity=64 time=10\n",
      "note_on channel=0 note=74 velocity=64 time=14\n",
      "note_off channel=0 note=74 velocity=64 time=10\n",
      "note_on channel=0 note=76 velocity=64 time=22\n",
      "note_off channel=0 note=76 velocity=64 time=10\n",
      "note_on channel=0 note=72 velocity=64 time=198\n",
      "note_off channel=0 note=72 velocity=64 time=10\n",
      "note_on channel=0 note=72 velocity=64 time=22\n",
      "note_off channel=0 note=72 velocity=64 time=10\n",
      "note_on channel=0 note=72 velocity=64 time=30\n",
      "note_off channel=0 note=72 velocity=64 time=10\n",
      "note_on channel=0 note=72 velocity=64 time=38\n",
      "note_off channel=0 note=72 velocity=64 time=10\n",
      "note_on channel=0 note=74 velocity=64 time=14\n",
      "note_off channel=0 note=74 velocity=64 time=10\n",
      "note_on channel=0 note=76 velocity=64 time=38\n",
      "note_off channel=0 note=76 velocity=64 time=10\n",
      "note_on channel=0 note=72 velocity=64 time=22\n",
      "note_off channel=0 note=72 velocity=64 time=10\n",
      "note_on channel=0 note=69 velocity=64 time=30\n",
      "note_off channel=0 note=69 velocity=64 time=10\n",
      "note_on channel=0 note=67 velocity=64 time=22\n",
      "note_off channel=0 note=67 velocity=64 time=10\n",
      "note_on channel=0 note=76 velocity=64 time=78\n",
      "note_off channel=0 note=76 velocity=64 time=10\n",
      "note_on channel=0 note=76 velocity=64 time=22\n",
      "note_off channel=0 note=76 velocity=64 time=10\n",
      "note_on channel=0 note=76 velocity=64 time=30\n",
      "note_off channel=0 note=76 velocity=64 time=10\n",
      "note_on channel=0 note=72 velocity=64 time=38\n",
      "note_off channel=0 note=72 velocity=64 time=10\n",
      "note_on channel=0 note=76 velocity=64 time=14\n",
      "note_off channel=0 note=76 velocity=64 time=10\n",
      "note_on channel=0 note=79 velocity=64 time=38\n",
      "note_off channel=0 note=79 velocity=64 time=10\n",
      "note_on channel=0 note=76 velocity=64 time=182\n",
      "note_off channel=0 note=76 velocity=64 time=10\n",
      "note_on channel=0 note=72 velocity=64 time=14\n",
      "note_off channel=0 note=72 velocity=64 time=10\n",
      "note_on channel=0 note=67 velocity=64 time=38\n",
      "note_off channel=0 note=67 velocity=64 time=10\n",
      "note_on channel=0 note=68 velocity=64 time=62\n",
      "note_off channel=0 note=68 velocity=64 time=10\n",
      "note_on channel=0 note=69 velocity=64 time=38\n",
      "note_off channel=0 note=69 velocity=64 time=10\n",
      "note_on channel=0 note=77 velocity=64 time=14\n",
      "note_off channel=0 note=77 velocity=64 time=10\n",
      "note_on channel=0 note=77 velocity=64 time=38\n",
      "note_off channel=0 note=77 velocity=64 time=10\n",
      "note_on channel=0 note=69 velocity=64 time=14\n",
      "note_off channel=0 note=69 velocity=64 time=10\n",
      "note_on channel=0 note=71 velocity=64 time=86\n",
      "note_off channel=0 note=71 velocity=64 time=10\n",
      "note_on channel=0 note=81 velocity=64 time=22\n",
      "note_off channel=0 note=81 velocity=64 time=10\n",
      "note_on channel=0 note=81 velocity=64 time=30\n",
      "note_off channel=0 note=81 velocity=64 time=10\n",
      "note_on channel=0 note=81 velocity=64 time=14\n",
      "note_off channel=0 note=81 velocity=64 time=10\n",
      "note_on channel=0 note=79 velocity=64 time=22\n",
      "note_off channel=0 note=79 velocity=64 time=10\n",
      "note_on channel=0 note=77 velocity=64 time=22\n",
      "note_off channel=0 note=77 velocity=64 time=10\n",
      "note_on channel=0 note=76 velocity=64 time=22\n",
      "note_off channel=0 note=76 velocity=64 time=10\n",
      "note_on channel=0 note=72 velocity=64 time=14\n",
      "note_off channel=0 note=72 velocity=64 time=10\n",
      "note_on channel=0 note=69 velocity=64 time=38\n",
      "note_off channel=0 note=69 velocity=64 time=10\n",
      "note_on channel=0 note=67 velocity=64 time=14\n",
      "note_off channel=0 note=67 velocity=64 time=10\n",
      "note_on channel=0 note=76 velocity=64 time=86\n",
      "note_off channel=0 note=76 velocity=64 time=10\n",
      "note_on channel=0 note=72 velocity=64 time=14\n",
      "note_off channel=0 note=72 velocity=64 time=10\n",
      "note_on channel=0 note=67 velocity=64 time=38\n",
      "note_off channel=0 note=67 velocity=64 time=10\n",
      "note_on channel=0 note=68 velocity=64 time=62\n",
      "note_off channel=0 note=68 velocity=64 time=10\n",
      "note_on channel=0 note=69 velocity=64 time=38\n",
      "note_off channel=0 note=69 velocity=64 time=10\n",
      "note_on channel=0 note=77 velocity=64 time=14\n",
      "note_off channel=0 note=77 velocity=64 time=10\n",
      "note_on channel=0 note=77 velocity=64 time=38\n",
      "note_off channel=0 note=77 velocity=64 time=10\n",
      "note_on channel=0 note=69 velocity=64 time=14\n",
      "note_off channel=0 note=69 velocity=64 time=10\n",
      "note_on channel=0 note=71 velocity=64 time=86\n",
      "note_off channel=0 note=71 velocity=64 time=10\n",
      "note_on channel=0 note=77 velocity=64 time=14\n",
      "note_off channel=0 note=77 velocity=64 time=10\n",
      "note_on channel=0 note=77 velocity=64 time=38\n",
      "note_off channel=0 note=77 velocity=64 time=10\n",
      "note_on channel=0 note=77 velocity=64 time=14\n",
      "note_off channel=0 note=77 velocity=64 time=10\n",
      "note_on channel=0 note=76 velocity=64 time=22\n",
      "note_off channel=0 note=76 velocity=64 time=10\n",
      "note_on channel=0 note=74 velocity=64 time=22\n",
      "note_off channel=0 note=74 velocity=64 time=10\n",
      "note_on channel=0 note=72 velocity=64 time=22\n",
      "note_off channel=0 note=72 velocity=64 time=10\n"
     ]
    }
   ],
   "source": [
    "track = mido.merge_tracks(teste.tracks)\n",
    "\n",
    "for msg in track:\n",
    "    if not msg.is_meta:\n",
    "        print(msg)"
   ]
  },
  {
   "cell_type": "code",
   "execution_count": null,
   "id": "fc16ea68",
   "metadata": {},
   "outputs": [],
   "source": [
    "# def split_mid(sample):\n",
    "#     splited = []\n",
    "#     sample = sample.T\n",
    "    \n",
    "#     for i in range(0,len(sample),512):\n",
    "#         splited_sample = sample[i+2048:i]\n",
    "#         splited.append(splited_sample)\n",
    "        \n",
    "#         print(np.shape(splited_sample))\n",
    "#         samples_to_midi(splited_sample.T, f\"Splited/{int(i/512)}\")\n",
    "        \n",
    "# #     return splited "
   ]
  },
  {
   "cell_type": "code",
   "execution_count": null,
   "id": "3ac77739",
   "metadata": {},
   "outputs": [],
   "source": [
    "# list_splited = split_mid(samples)"
   ]
  }
 ],
 "metadata": {
  "kernelspec": {
   "display_name": "EstudoMusica",
   "language": "python",
   "name": "estudomusica"
  },
  "language_info": {
   "codemirror_mode": {
    "name": "ipython",
    "version": 3
   },
   "file_extension": ".py",
   "mimetype": "text/x-python",
   "name": "python",
   "nbconvert_exporter": "python",
   "pygments_lexer": "ipython3",
   "version": "3.8.5"
  }
 },
 "nbformat": 4,
 "nbformat_minor": 5
}
